<?xml version="1.0" encoding="utf-8"?>
<!-- Generator: Adobe Illustrator 24.0.1, SVG Export Plug-In . SVG Version: 6.00 Build 0)  -->
<svg version="1.1" id="Ebene_1" xmlns="http://www.w3.org/2000/svg" xmlns:xlink="http://www.w3.org/1999/xlink" x="0px" y="0px"
	 width="425.2px" height="129.1px" viewBox="0 0 425.2 129.1" style="enable-background:new 0 0 425.2 129.1;" xml:space="preserve"
	>
<g>
	<g>
		<path style="fill:#F45917;" d="M44.8,108.3v0.7c0,3.1-0.6,5.8-1.6,8.4c-1.1,2.5-2.6,4.6-4.5,6.4c-1.9,1.7-4.2,3.1-6.9,4
			c-2.7,0.9-5.7,1.4-9,1.4c-3.4,0-6.4-0.5-9.2-1.5c-2.8-1-5.1-2.5-7.1-4.5c-2-2-3.6-4.3-4.7-7c-1.1-2.7-1.6-5.8-1.6-9.2V92
			c0-3.5,0.5-6.7,1.6-9.5c1.1-2.8,2.7-5.2,4.7-7.2c2-2,4.4-3.5,7.1-4.6c2.7-1.1,5.8-1.6,9.2-1.6c3.3,0,6.3,0.5,9,1.6
			c2.7,1.1,5,2.6,6.9,4.6c1.9,2,3.4,4.4,4.5,7.2c1.1,2.8,1.6,5.9,1.6,9.5v9.1H11.5v6.9c0,3.3,1,6.1,2.9,8.3c2,2.2,4.7,3.4,8.2,3.4
			c3.5,0,6.2-1,8.1-3c1.8-2,2.8-4.5,2.8-7.5v-0.9H44.8z M11.5,92.7h22v-2.1c0-3.5-0.9-6.3-2.8-8.6c-1.9-2.3-4.6-3.4-8.1-3.4
			s-6.3,1.1-8.2,3.4c-1.9,2.3-2.9,5.1-2.9,8.6V92.7z"/>
	</g>
	<polygon style="fill:#284378;" points="45.1,50.5 45.1,56.1 66.3,56.1 66.3,127.9 72.4,127.9 72.4,56.1 93.7,56.1 93.7,50.5 	"/>
	<g>
		<path style="fill:#284378;" d="M138.2,109.1v1.1c0,3-0.5,5.6-1.5,7.9c-1,2.3-2.4,4.3-4.2,6c-1.8,1.7-4,2.9-6.6,3.8
			c-2.6,0.9-5.4,1.3-8.5,1.3c-3.1,0-6-0.5-8.6-1.4c-2.6-0.9-4.8-2.3-6.7-4.1s-3.3-4-4.4-6.5c-1-2.6-1.5-5.4-1.5-8.7V91.2
			c0-3.4,0.5-6.4,1.5-9.1c1-2.7,2.5-5,4.4-6.9c1.9-1.9,4.1-3.3,6.7-4.4c2.6-1,5.5-1.5,8.6-1.5c3.1,0,5.9,0.5,8.5,1.5
			c2.6,1,4.8,2.5,6.6,4.4c1.8,1.9,3.2,4.2,4.2,6.9c1,2.7,1.5,5.8,1.5,9.1v8.4H102v9.3c0,4.3,1.3,8,3.9,10.9
			c2.6,2.9,6.4,4.4,11.4,4.4c5.1,0,8.9-1.3,11.5-3.9c2.5-2.6,3.8-5.8,3.8-9.6v-1.5H138.2z M102,94.4h30.6v-3.7c0-2.4-0.3-4.5-1-6.5
			c-0.7-2-1.6-3.7-2.9-5.2c-1.3-1.5-2.9-2.6-4.8-3.5c-1.9-0.9-4.1-1.3-6.5-1.3c-2.4,0-4.6,0.4-6.5,1.3c-1.9,0.9-3.5,2-4.8,3.5
			c-1.3,1.5-2.3,3.2-2.9,5.2c-0.7,2-1,4.2-1,6.5V94.4z"/>
		<path style="fill:#284378;" d="M153.9,127.9V70.4h3.9l1.4,7.7c1.8-2.8,4.1-5,6.9-6.5c2.8-1.5,5.9-2.3,9.5-2.3h1.2
			c0.4,0,0.8,0,1.2,0.1V75c-0.4-0.1-0.8-0.1-1.2-0.2c-0.4,0-1-0.1-1.6-0.1c-2.4,0-4.5,0.4-6.4,1.2c-1.9,0.8-3.5,2-4.9,3.5
			c-1.4,1.5-2.4,3.2-3.1,5.2c-0.7,2-1.1,4.1-1.1,6.5v36.8H153.9z"/>
		<path style="fill:#284378;" d="M189.7,127.9V70.4h3.9l1.3,7.3c1.8-2.7,4.1-4.9,6.8-6.3c2.7-1.5,5.8-2.2,9.4-2.2
			c4.2,0,7.9,0.9,11,2.8c3.1,1.9,5.3,4.5,6.8,8c1.7-3.5,4-6.1,7-8c3-1.8,6.5-2.8,10.4-2.8c6.1,0,11,1.9,14.5,5.5
			c3.5,3.7,5.3,8.8,5.3,15.2v37.9h-5.9V89.5c0-2.1-0.3-4.1-0.9-5.9c-0.6-1.8-1.5-3.4-2.7-4.7c-1.2-1.3-2.7-2.4-4.5-3.2
			c-1.8-0.8-3.8-1.2-6.2-1.2c-2.3,0-4.4,0.4-6.2,1.2c-1.9,0.8-3.5,1.9-4.8,3.3c-1.3,1.4-2.3,3.1-3,4.9c-0.7,1.9-1.1,3.9-1.1,6.1
			v37.8H225V89.5c0-2.1-0.3-4.1-0.9-5.9c-0.6-1.8-1.5-3.4-2.7-4.7c-1.2-1.3-2.7-2.4-4.5-3.2c-1.8-0.8-3.8-1.2-6.2-1.2
			c-2.3,0-4.4,0.4-6.2,1.2c-1.9,0.8-3.5,1.9-4.8,3.3c-1.3,1.4-2.3,3.1-3,4.9c-0.7,1.9-1.1,3.9-1.1,6.1v37.8H189.7z"/>
		<path style="fill:#284378;" d="M282.3,53.7c0-1.3,0.4-2.3,1.2-3.1c0.8-0.8,1.9-1.2,3.1-1.2c1.3,0,2.3,0.4,3.1,1.2
			c0.8,0.8,1.2,1.9,1.2,3.1c0,1.3-0.4,2.3-1.2,3.1c-0.8,0.8-1.9,1.2-3.1,1.2c-1.3,0-2.3-0.4-3.1-1.2C282.8,56,282.3,55,282.3,53.7
			 M289.7,127.9h-5.9V70.4h5.9V127.9z"/>
		<path style="fill:#284378;" d="M307.8,127.9V70.4h3.9l1.4,7.3c1.8-2.7,4.1-4.9,6.9-6.3c2.8-1.5,5.9-2.2,9.5-2.2
			c6.2,0,11.1,1.9,14.7,5.5c3.6,3.7,5.4,8.8,5.4,15.2v37.9h-5.9V89.5c0-2.1-0.3-4.1-0.9-5.9c-0.6-1.8-1.5-3.4-2.8-4.7
			c-1.2-1.3-2.7-2.4-4.5-3.2c-1.8-0.8-3.9-1.2-6.4-1.2c-4.9,0-8.7,1.6-11.4,4.7c-2.7,3.1-4.1,6.9-4.1,11.5v37.2H307.8z"/>
		<path style="fill:#284378;" d="M407.2,23.3C406.2,10.3,395.3,0,382,0c-11.1,0-20.8,7.2-24.1,17.6c-1.7-0.9-3.5-1.4-5.4-1.4
			c-6.1,0-11,4.7-11.4,10.7c-9.7,0.1-17.5,7.9-17.5,17.6c0,9.7,7.9,17.6,17.6,17.6h8.8v-3.9h-8.8c-7.6,0-13.7-6.1-13.7-13.7
			c0-7.5,6.1-13.6,13.5-13.7l1.6,0.3c0.5,0.1,1.1,0,1.5-0.4c0.4-0.3,0.7-0.9,0.7-1.4l0.1-1.5c0,0,0-0.1,0-0.1c0-4.2,3.4-7.6,7.6-7.6
			c1.8,0,3.5,0.6,4.9,1.8c0.4,0.3,0.9,0.5,1.3,0.5l0.5,0c0.9,0,1.7-0.7,1.8-1.6l0.1-0.7c2.4-9.5,10.9-16.1,20.7-16.1
			c11.8,0,21.4,9.6,21.4,21.4c0,1.1,0.9,1.9,1.9,1.9h0.9c8.3,0,15.1,6.8,15.1,15.1s-6.8,15.1-15.1,15.1h-4.7v3.9h4.7
			c10.5,0,19-8.5,19-19C425.2,32.2,417.2,23.9,407.2,23.3"/>
		<path style="fill:#F45917;" d="M376.1,72c-10.5,0-19-8.5-19-19c0-10.5,8.5-19,19-19c10.5,0,19,8.5,19,19
			C395.1,63.5,386.6,72,376.1,72 M376.1,30.1c-12.6,0-22.9,10.3-22.9,22.9c0,12.6,10.3,22.9,22.9,22.9c12.6,0,22.9-10.3,22.9-22.9
			C399,40.4,388.8,30.1,376.1,30.1"/>
		<path style="fill:#F45917;" d="M376.1,54.7c-0.9,0-1.7-0.8-1.7-1.7s0.8-1.7,1.7-1.7c0.9,0,1.7,0.8,1.7,1.7S377.1,54.7,376.1,54.7
			 M387.4,40.6l-9.2,8.7c-0.6-0.4-1.3-0.6-2.1-0.6c-1,0-1.9,0.3-2.6,0.9l-5.9-5.3l-1.7,1.9l6.1,5.6c-0.1,0.4-0.2,0.8-0.2,1.2
			c0,2.4,1.9,4.3,4.3,4.3c2.4,0,4.3-1.9,4.3-4.3c0-0.6-0.2-1.2-0.4-1.8l9.2-8.7L387.4,40.6z"/>
	</g>
</g>
</svg>
